<?xml version="1.0" encoding="UTF-8" standalone="no"?>
<svg
   xmlns:dc="http://purl.org/dc/elements/1.1/"
   xmlns:cc="http://creativecommons.org/ns#"
   xmlns:rdf="http://www.w3.org/1999/02/22-rdf-syntax-ns#"
   xmlns:svg="http://www.w3.org/2000/svg"
   xmlns="http://www.w3.org/2000/svg"
   xmlns:sodipodi="http://sodipodi.sourceforge.net/DTD/sodipodi-0.dtd"
   xmlns:inkscape="http://www.inkscape.org/namespaces/inkscape"
   inkscape:version="1.0 (4035a4fb49, 2020-05-01)"
   height="477.37"
   width="285.01001"
   sodipodi:docname="Suh-05-zzz.svg"
   id="svg163"
   xml:space="preserve"
   viewBox="0 0 285.01001 477.36998"
   y="0px"
   x="0px"
   version="1.1"><metadata
   id="metadata169"><rdf:RDF><cc:Work
       rdf:about=""><dc:format>image/svg+xml</dc:format><dc:type
         rdf:resource="http://purl.org/dc/dcmitype/StillImage" /><dc:title></dc:title></cc:Work></rdf:RDF></metadata><defs
   id="defs167">
	
	

	
	
	
	
	

		
		
	</defs><sodipodi:namedview
   inkscape:current-layer="svg163"
   inkscape:window-maximized="1"
   inkscape:window-y="0"
   inkscape:window-x="0"
   inkscape:cy="-26.837993"
   inkscape:cx="-963.10759"
   inkscape:zoom="0.29906411"
   showgrid="false"
   id="namedview165"
   inkscape:window-height="2067"
   inkscape:window-width="3840"
   inkscape:pageshadow="2"
   inkscape:pageopacity="0"
   guidetolerance="10"
   gridtolerance="10"
   objecttolerance="10"
   borderopacity="1"
   bordercolor="#666666"
   pagecolor="#ffffff" />
<style
   id="style2"
   type="text/css">
	.st0{fill:#14024C;}
	.st1{fill:#F6F6F6;}
	.st2{fill:#FFFFFF;}
	.st3{fill:url(#SVGID_1_);}
	.st4{fill:url(#SVGID_2_);}
	.st5{fill:#53606B;}
	.st6{fill:#F12711;}
	.st7{fill:url(#SVGID_3_);}
	.st8{fill:#58595B;}
	.st9{fill:#4A00E0;}
	.st10{fill:url(#SVGID_4_);}
	.st11{fill:url(#SVGID_5_);}
	.st12{fill:#0640CE;}
	.st13{fill:#2A98F4;}
	.st14{fill:#2EA1EF;}
	.st15{fill:#2E74E5;}
	.st16{fill:url(#SVGID_6_);}
	.st17{fill:url(#SVGID_7_);}
</style>

<g
   transform="translate(-3006.2,-1482.62)"
   id="g69">
			<linearGradient
   y2="2015.9388"
   x2="3148.7112"
   y1="1380.6178"
   x1="3148.7112"
   gradientUnits="userSpaceOnUse"
   id="SVGID_3_">
				<stop
   id="stop54"
   style="stop-color:#F12711"
   offset="4.741732e-07" />
				<stop
   id="stop56"
   style="stop-color:#F5AF19"
   offset="1" />
			</linearGradient>
			<path
   style="fill:url(#SVGID_3_)"
   id="path59"
   d="m 3208.99,1711.58 h -15.98 -88.61 -15.98 c -34.76,0 -63.04,-28.87 -63.04,-64.36 0,-35.49 28.28,-64.36 63.04,-64.36 h 122.18 c 5.29,0 9.59,-4.38 9.59,-9.79 0,-5.41 -4.29,-9.79 -9.59,-9.79 h -122.18 c -45.33,0 -82.22,37.65 -82.22,83.93 0,46.28 36.88,83.93 82.22,83.93 h 15.98 88.61 15.98 c 34.76,0 63.04,28.87 63.04,64.36 0,35.49 -28.28,64.36 -63.04,64.36 h -122.18 c -5.29,0 -9.59,4.38 -9.59,9.79 0,5.41 4.29,9.79 9.59,9.79 h 122.18 c 45.33,0 82.22,-37.65 82.22,-83.93 0,-46.28 -36.88,-83.93 -82.22,-83.93 z"
   class="st7" />
			<g
   id="g67">
				<g
   id="g65">
					<path
   id="path61"
   d="m 3088.43,1805.3 h 91.54 c 2.89,4.18 7.65,6.92 13.05,6.92 8.83,0 15.98,-7.3 15.98,-16.31 0,-9.01 -7.16,-16.31 -15.98,-16.31 -5.05,0 -9.55,2.4 -12.48,6.14 h -92.11 c -45.33,0 -82.22,37.65 -82.22,83.93 0,46.28 36.88,83.93 82.22,83.93 h 91.93 c 2.92,3.88 7.5,6.39 12.66,6.39 8.83,0 15.98,-7.3 15.98,-16.31 0,-9.01 -7.16,-16.31 -15.98,-16.31 -5.29,0 -9.96,2.63 -12.87,6.67 h -91.72 c -34.76,0 -63.04,-28.87 -63.04,-64.36 0,-35.49 28.28,-64.38 63.04,-64.38 z"
   class="st8" />
					<path
   id="path63"
   d="m 3208.99,1489.15 h -91.82 c -2.92,-3.96 -7.54,-6.53 -12.76,-6.53 -8.83,0 -15.98,7.3 -15.98,16.31 0,9.01 7.16,16.31 15.98,16.31 5.22,0 9.85,-2.57 12.76,-6.53 h 91.82 c 34.76,0 63.04,28.87 63.04,64.36 0,35.49 -28.28,64.36 -63.04,64.36 h -92.26 c -2.93,-3.63 -7.37,-5.94 -12.33,-5.94 -8.83,0 -15.98,7.3 -15.98,16.31 0,9.01 7.16,16.31 15.98,16.31 5.48,0 10.32,-2.82 13.2,-7.12 h 91.39 c 45.33,0 82.22,-37.65 82.22,-83.93 0,-46.26 -36.88,-83.91 -82.22,-83.91 z"
   class="st8" />
				</g>
			</g>
		</g>
</svg>
